# xmcd
#
# Track frame offsets:
#	150
#	9499
#	23121
#	36175
#	46462
#	58040
#	68300
#	79951
#	91900
#	104350
#	117743
#	129537
#	142740
#	155657
#	166998
#
# Disc length: 2348
#
# Revision: 2
# Processed by: cddbd v1.5.1PL0 Copyright (c) Steve Scherf et al.
# Submitted via: audiograbber 1.80.04
# Normalized: r0:DSETVAR1,TDELIM( - ),TSWAP
#
DISCID=c1092a0f
DTITLE=Various Artist - Classic Country, 1950 - 1959, CD-1
DYEAR=1900
DGENRE=Country Classic
TTITLE0=Patsy Cline - Walkin' After Midnight
TTITLE1=Bobby Helms - My Special Angel
TTITLE2=The Browns - The Three Bells
TTITLE3=Conway Twitty - It's Only Make Believe
TTITLE4=Sonny James - Young Love
TTITLE5=Jimmie Rogers - Honeycomb
TTITLE6=Johnny Horton - The Battle Of New Orleans
TTITLE7=Tennessee Ernie Ford - Sixteen Tons
TTITLE8=Johnny Cash - I Walk The Line
TTITLE9=Jerry Lee Lewis - You Win Again
TTITLE10=Ray Price - Crazy Arms
TTITLE11=Hank Williams - Hey Good Lookin'
TTITLE12=Hank Snow - I'm Moving On
TTITLE13=Marty Robbins - Singin' The Blues
TTITLE14=Elvis Presley - Don't Be Cruel
EXTD=
EXTT0=
EXTT1=
EXTT2=
EXTT3=
EXTT4=
EXTT5=
EXTT6=
EXTT7=
EXTT8=
EXTT9=
EXTT10=
EXTT11=
EXTT12=
EXTT13=
EXTT14=
PLAYORDER=
